<?xml version="1.0" standalone="no"?>
<!DOCTYPE svg PUBLIC "-//W3C//DTD SVG 20010904//EN"
 "http://www.w3.org/TR/2001/REC-SVG-20010904/DTD/svg10.dtd">
<svg version="1.0" xmlns="http://www.w3.org/2000/svg"
 width="153.000000pt" height="158.000000pt" viewBox="0 0 153.000000 158.000000"
 preserveAspectRatio="xMidYMid meet">

<g transform="translate(0.000000,158.000000) scale(0.100000,-0.100000)"
fill="#ffffff" stroke="none">
<path d="M889 1550 c-133 -23 -249 -138 -278 -279 -14 -64 -8 -78 9 -24 33
100 93 173 177 214 46 22 153 39 153 24 0 -5 -16 -24 -36 -43 -50 -48 -71
-101 -84 -207 -12 -101 -31 -188 -55 -254 -8 -24 -14 -46 -11 -48 9 -9 78 151
101 237 43 159 54 179 118 228 31 24 62 53 68 64 17 32 2 68 -36 84 -37 15
-56 16 -126 4z"/>
<path d="M219 1316 c-54 -37 -72 -104 -49 -187 11 -39 69 -113 103 -130 19
-10 19 -8 -4 17 -111 122 -77 274 62 274 54 0 159 -30 207 -60 41 -25 42 -10
1 25 -62 52 -129 78 -209 82 -68 4 -79 2 -111 -21z"/>
<path d="M1089 1330 c-56 -10 -110 -43 -164 -101 -26 -28 -31 -37 -15 -26 78
53 117 71 160 75 65 6 111 -11 178 -67 32 -26 68 -53 81 -61 23 -12 22 -14
-52 -52 -43 -23 -93 -58 -114 -82 -67 -74 -101 -116 -96 -116 11 0 51 25 89
56 45 36 113 70 221 109 91 33 125 64 121 107 -2 23 -10 36 -28 44 -14 7 -66
33 -115 57 -110 55 -184 71 -266 57z"/>
<path d="M385 1169 c-4 -6 -4 -13 -1 -16 3 -4 6 -1 6 5 0 7 6 12 14 12 25 0
66 -41 117 -118 28 -42 69 -95 90 -118 22 -22 36 -44 32 -49 -5 -4 -2 -5 5 -1
7 4 21 2 30 -5 9 -7 5 -1 -10 14 -33 33 -105 128 -142 187 -46 73 -122 121
-141 89z"/>
<path d="M634 1134 c-10 -39 2 -91 36 -157 17 -33 29 -61 27 -63 -2 -2 -34 37
-70 87 -67 91 -85 138 -49 124 13 -5 14 -3 5 6 -6 6 -16 8 -22 5 -33 -21 14
-114 103 -211 31 -33 56 -55 55 -50 -1 6 -1 17 0 25 1 13 2 13 11 0 15 -23 12
-10 -10 45 -10 28 -19 43 -20 35 -1 -27 -30 21 -46 77 -15 52 -12 93 7 93 5 0
9 -7 9 -16 0 -8 4 -13 10 -9 15 9 0 35 -21 35 -12 0 -21 -10 -25 -26z m78
-230 c-6 -12 -9 -7 -9 16 0 23 3 28 9 16 5 -9 5 -23 0 -32z"/>
<path d="M695 1039 c-1 -22 2 -33 7 -26 10 15 10 54 1 60 -5 3 -8 -12 -8 -34z"/>
<path d="M380 1041 c0 -6 4 -13 10 -16 6 -3 7 1 4 9 -7 18 -14 21 -14 7z"/>
<path d="M436 1024 c21 -15 56 -41 76 -60 36 -33 119 -82 88 -52 -39 37 -137
116 -157 127 -41 21 -46 11 -7 -15z"/>
<path d="M846 955 c-53 -19 -83 -52 -91 -100 l-6 -40 21 39 c23 46 31 52 82
66 68 19 108 -12 190 -150 90 -152 164 -239 268 -314 8 -6 -8 16 -37 49 -57
68 -100 133 -163 250 -98 183 -167 235 -264 200z"/>
<path d="M270 922 c-78 -32 -155 -104 -196 -183 -26 -49 -29 -63 -29 -156 0
-94 2 -103 24 -127 46 -49 84 -30 140 69 40 71 63 88 173 133 53 22 116 51
140 65 63 37 145 97 132 97 -5 0 -14 -4 -19 -8 -24 -21 -166 -75 -268 -103
-128 -34 -175 -61 -220 -125 -26 -37 -33 -42 -40 -28 -15 27 -2 135 23 187 33
69 95 132 170 172 77 41 62 44 -30 7z"/>
<path d="M470 905 c0 -28 25 -45 67 -46 26 0 26 -1 7 -9 -27 -11 -38 -27 -24
-35 6 -4 9 -1 8 7 -2 9 14 15 52 18 46 5 50 7 25 12 -17 3 -9 4 20 2 42 -2 46
-1 25 7 -14 6 -50 11 -81 13 -70 2 -120 37 -71 49 13 4 11 5 -5 6 -18 1 -23
-4 -23 -24z"/>
<path d="M648 833 c6 -2 18 -2 25 0 6 3 1 5 -13 5 -14 0 -19 -2 -12 -5z"/>
<path d="M647 775 c-13 -14 -27 -36 -29 -49 -11 -57 42 -140 112 -176 52 -26
312 -106 420 -130 52 -11 113 -25 136 -32 23 -6 49 -8 60 -3 17 7 15 9 -11 15
-16 4 -45 15 -64 24 -18 10 -74 33 -125 51 -50 18 -120 46 -156 63 -36 16
-111 43 -167 61 -144 44 -192 90 -167 156 4 10 21 23 38 31 31 13 31 13 5 14
-15 0 -37 -11 -52 -25z"/>
<path d="M364 597 c-59 -78 -69 -106 -68 -187 1 -92 25 -159 91 -252 27 -37
57 -82 68 -100 26 -42 63 -48 98 -16 26 22 37 55 77 228 7 30 32 92 56 137 24
44 44 89 43 100 0 13 -2 14 -6 3 -3 -8 -29 -40 -58 -70 -63 -67 -86 -105 -114
-191 l-22 -67 -83 87 c-53 55 -87 100 -96 125 -17 53 -8 124 24 186 15 29 26
53 24 55 -2 2 -17 -16 -34 -38z"/>
</g>
</svg>
