<?xml version="1.0" standalone="no"?>
<!DOCTYPE svg PUBLIC "-//W3C//DTD SVG 20010904//EN"
 "http://www.w3.org/TR/2001/REC-SVG-20010904/DTD/svg10.dtd">
<svg version="1.0" xmlns="http://www.w3.org/2000/svg"
 width="718.000000pt" height="435.000000pt" viewBox="0 0 718.000000 435.000000"
 preserveAspectRatio="xMidYMid meet">

<g transform="translate(0.000000,435.000000) scale(0.100000,-0.100000)"
fill="rgb(22, 2, 54)" stroke="none">
<path d="M1190 4080 c-267 -28 -470 -120 -646 -295 -218 -215 -371 -528 -313
-638 24 -46 67 -50 99 -10 18 23 20 35 15 74 -5 36 0 64 20 125 42 125 89 199
189 300 78 78 105 98 186 137 52 25 140 58 195 74 94 25 113 27 305 27 156 0
229 -4 305 -18 394 -72 676 -206 1433 -683 506 -319 561 -353 757 -469 259
-152 643 -346 819 -413 158 -59 377 -123 389 -112 13 12 37 143 37 202 l0 57
-82 22 c-438 118 -805 301 -1598 798 -688 431 -916 556 -1258 688 -280 109
-603 159 -852 134z"/>
<path d="M6100 3980 c-225 -23 -350 -84 -350 -170 0 -32 44 -70 81 -70 34 0
99 55 99 84 0 27 147 56 282 56 321 0 570 -174 654 -455 24 -81 24 -247 0
-335 -26 -96 -89 -218 -149 -288 -155 -182 -426 -317 -771 -383 -189 -36 -498
-49 -682 -28 -53 6 -98 8 -101 5 -3 -3 -9 -41 -13 -84 -5 -43 -13 -98 -20
-121 -6 -24 -9 -45 -7 -48 12 -11 209 -34 367 -42 382 -19 689 38 959 180 117
61 192 116 289 212 474 467 365 1235 -204 1440 -135 49 -271 63 -434 47z"/>
<path d="M3970 3205 c-81 -13 -231 -48 -330 -78 l-44 -14 39 -25 c22 -13 48
-29 58 -34 12 -7 45 -1 118 24 290 97 565 97 776 2 187 -85 343 -271 398 -475
39 -148 26 -340 -32 -463 l-25 -53 26 -59 c50 -110 66 -250 45 -380 -45 -280
-231 -497 -504 -586 -68 -23 -103 -28 -230 -32 -171 -5 -278 12 -456 71 l-99
33 -45 -26 c-76 -44 -76 -45 55 -79 229 -61 259 -65 490 -65 190 0 224 2 292
21 184 52 280 106 398 223 95 95 140 165 182 281 58 166 59 352 3 520 l-26 76
25 75 c103 306 24 623 -208 834 -35 33 -89 74 -121 93 -79 48 -217 98 -320
116 -107 18 -346 18 -465 0z"/>
<path d="M1105 3174 c-159 -19 -223 -30 -305 -56 -351 -112 -597 -357 -693
-693 -29 -101 -37 -496 -12 -617 24 -119 69 -228 136 -328 193 -289 506 -454
903 -476 344 -20 774 101 1196 336 52 29 160 96 240 149 80 53 148 97 152 99
4 2 92 -52 195 -120 104 -68 227 -148 275 -177 l86 -53 46 27 c25 15 48 30 51
35 2 4 -32 29 -78 56 -105 61 -454 290 -461 303 -10 15 368 281 547 386 37 21
67 42 67 45 0 3 -30 24 -67 45 -182 106 -557 370 -548 385 7 12 368 250 462
305 46 26 80 51 78 55 -3 5 -25 20 -50 34 l-45 27 -47 -28 c-62 -35 -249 -156
-381 -245 -56 -38 -108 -71 -116 -74 -8 -3 -56 24 -108 59 -266 184 -589 347
-853 430 -223 70 -510 109 -670 91z m249 -214 c334 -65 706 -231 1059 -472 48
-33 87 -62 87 -64 0 -1 -79 -59 -176 -128 l-177 -125 -53 48 c-218 200 -448
301 -683 301 -177 0 -289 -44 -385 -151 -153 -170 -140 -432 28 -587 84 -78
153 -106 291 -122 229 -25 485 74 724 280 l79 69 178 -126 177 -126 -24 -18
c-70 -55 -312 -203 -444 -271 -258 -132 -450 -203 -686 -250 -93 -18 -146 -22
-289 -22 -157 1 -185 3 -275 27 -340 91 -544 306 -586 618 -8 56 -8 106 -1
167 6 54 7 116 2 162 -17 146 20 328 91 443 115 186 314 315 554 356 33 6 71
13 85 15 61 11 320 -4 424 -24z m271 -580 c127 -39 258 -118 390 -234 33 -30
37 -37 25 -46 -12 -8 -13 -11 -1 -19 28 -18 -149 -159 -284 -225 -128 -63
-198 -80 -330 -80 -149 -1 -215 23 -301 108 -122 122 -127 275 -13 400 84 92
188 128 349 122 59 -3 122 -13 165 -26z m1141 -140 c87 -61 170 -118 186 -128
15 -9 28 -19 28 -22 -1 -7 -361 -254 -377 -258 -15 -4 -375 248 -371 259 5 12
352 258 365 259 6 0 83 -50 169 -110z"/>
<path d="M5285 2064 c-135 -18 -165 -24 -165 -32 0 -4 5 -23 10 -42 6 -19 14
-72 19 -118 5 -46 11 -85 14 -88 2 -3 55 0 118 7 156 16 459 6 613 -21 335
-58 557 -150 744 -307 204 -173 299 -486 220 -726 -34 -106 -68 -159 -152
-243 -127 -127 -257 -181 -457 -191 -145 -7 -319 22 -319 53 0 29 -65 84 -99
84 -41 0 -81 -39 -81 -78 0 -94 193 -163 465 -165 225 -3 385 50 543 177 111
88 192 215 247 386 25 75 28 100 28 220 1 105 -4 154 -20 220 -48 189 -139
349 -282 491 -201 201 -471 324 -822 374 -131 18 -485 18 -624 -1z"/>
<path d="M4830 1980 c-305 -81 -688 -260 -1160 -543 -74 -45 -263 -162 -420
-261 -806 -508 -990 -613 -1295 -739 -309 -128 -750 -173 -1020 -103 -187 48
-356 152 -451 280 -90 120 -150 274 -139 358 6 42 4 50 -19 73 -32 32 -59 32
-85 -1 -56 -71 0 -247 146 -468 59 -89 189 -225 268 -281 191 -136 412 -199
690 -197 175 0 301 18 475 66 389 107 692 263 1535 793 716 449 1082 633 1508
754 l117 33 0 56 c0 58 -25 189 -37 201 -5 3 -55 -6 -113 -21z"/>
</g>
</svg>
