<?xml version="1.0" standalone="no"?>
<!DOCTYPE svg PUBLIC "-//W3C//DTD SVG 20010904//EN"
 "http://www.w3.org/TR/2001/REC-SVG-20010904/DTD/svg10.dtd">
<svg version="1.0" xmlns="http://www.w3.org/2000/svg"
 width="354.000000pt" height="118.000000pt" viewBox="0 0 354.000000 118.000000"
 preserveAspectRatio="xMidYMid meet">

<g transform="translate(0.000000,118.000000) scale(0.100000,-0.100000)"
fill="#000000" stroke="none">
<path d="M2280 1061 c-47 -10 -87 -33 -132 -74 -66 -62 -88 -133 -68 -218 17
-72 95 -152 162 -169 36 -9 49 -18 58 -41 7 -16 32 -47 56 -69 82 -75 174
-100 371 -100 183 0 223 -23 223 -131 0 -106 -60 -145 -209 -136 -176 10 -287
69 -374 199 -67 98 -100 134 -172 189 -73 55 -140 79 -220 79 -76 0 -119 -16
-190 -69 l-52 -39 -37 120 c-52 169 -87 218 -197 273 -46 24 -190 55 -251 55
l-30 0 28 -32 c15 -18 46 -74 69 -124 24 -50 60 -111 81 -134 48 -54 134 -110
211 -139 32 -12 66 -28 77 -36 18 -13 17 -16 -24 -65 -23 -27 -45 -50 -48 -50
-4 0 -25 26 -47 58 -22 31 -54 73 -72 93 -57 63 -185 103 -256 80 -26 -9 -51
-9 -101 0 -143 24 -237 -38 -236 -159 1 -68 40 -131 126 -198 13 -9 1 -7 -34
6 -129 49 -203 103 -316 231 l-82 92 28 28 c62 61 23 166 -87 233 -46 28 -58
31 -135 31 -77 0 -90 -3 -140 -32 -49 -28 -140 -104 -140 -117 0 -2 9 -2 20 1
35 9 113 -28 170 -82 78 -74 109 -88 189 -83 l66 3 84 -93 c89 -100 157 -155
236 -195 225 -111 537 -114 660 -6 18 16 52 36 76 44 24 9 52 23 62 33 19 17
18 17 -11 22 l-30 5 37 43 38 43 79 -59 c167 -125 317 -201 416 -210 76 -6
113 9 135 59 l17 39 15 -24 c86 -128 375 -208 586 -162 98 21 167 58 252 137
131 122 210 161 279 139 49 -17 55 -4 8 16 -79 33 -186 -1 -299 -95 -70 -58
-124 -93 -180 -116 l-40 -17 42 43 c45 44 103 148 103 183 0 11 16 37 36 57
33 34 37 44 41 106 4 47 0 86 -12 128 -10 33 -18 75 -19 92 -1 38 -13 37 -81
-2 -83 -48 -125 -117 -125 -205 0 -85 55 -160 119 -160 27 0 26 -13 -4 -78
-23 -50 -121 -159 -133 -148 -2 3 1 12 7 20 22 26 24 117 4 155 -36 69 -54 75
-246 82 -186 7 -242 19 -309 65 -36 26 -88 88 -88 106 0 4 13 14 30 23 50 26
72 84 80 211 4 61 11 117 15 125 18 32 49 58 76 64 16 4 29 10 29 14 0 10
-123 40 -185 45 -27 3 -66 1 -85 -3z m-1110 -505 c11 -5 14 -19 12 -61 -3 -42
2 -67 21 -108 39 -86 96 -115 242 -126 l90 -6 -46 -28 c-61 -36 -144 -50 -257
-44 -156 9 -271 79 -307 186 -13 41 -14 57 -5 92 13 46 57 95 93 103 26 5 136
0 157 -8z m879 -5 c81 -25 150 -70 204 -134 76 -90 90 -132 62 -187 -32 -61
-114 -52 -280 32 -70 35 -245 151 -270 178 -21 24 -17 30 47 73 94 61 139 69
237 38z"/>
</g>
</svg>
