<?xml version="1.0" standalone="no"?>
<!DOCTYPE svg PUBLIC "-//W3C//DTD SVG 20010904//EN"
 "http://www.w3.org/TR/2001/REC-SVG-20010904/DTD/svg10.dtd">
<svg version="1.0" xmlns="http://www.w3.org/2000/svg"
 width="718.000000pt" height="435.000000pt" viewBox="0 0 718.000000 435.000000"
 preserveAspectRatio="xMidYMid meet">

<g transform="translate(0.000000,435.000000) scale(0.100000,-0.100000)"
fill="rgb(22, 2, 54)" stroke="none">
<path d="M5745 4083 c-289 -23 -514 -86 -845 -237 -239 -109 -456 -234 -1020
-588 -793 -497 -1160 -680 -1597 -798 l-83 -22 0 -57 c0 -59 24 -190 37 -202
12 -11 231 53 389 112 176 67 560 261 819 413 196 116 251 150 757 469 757
477 1039 611 1433 683 76 14 149 18 305 18 192 0 211 -2 305 -27 55 -16 143
-49 195 -74 81 -39 108 -59 186 -137 100 -101 147 -175 189 -300 20 -61 25
-89 20 -125 -5 -39 -3 -51 15 -74 32 -40 75 -36 99 10 58 110 -95 423 -313
638 -181 180 -379 268 -661 295 -106 10 -145 10 -230 3z"/>
<path d="M805 3975 c-360 -66 -593 -300 -651 -653 -47 -290 63 -608 288 -829
97 -96 172 -151 289 -212 270 -142 577 -199 959 -180 158 8 355 31 367 42 2 3
-1 24 -7 48 -7 23 -15 78 -20 121 -4 43 -10 81 -13 84 -3 3 -48 1 -101 -5
-184 -21 -493 -8 -682 28 -345 66 -616 201 -771 383 -60 70 -123 192 -149 288
-24 88 -24 254 0 335 84 281 333 455 654 455 135 0 282 -29 282 -56 0 -9 15
-31 34 -50 42 -42 85 -46 121 -9 46 45 24 106 -54 149 -106 57 -391 89 -546
61z"/>
<path d="M2737 3205 c-96 -18 -237 -70 -312 -116 -32 -19 -86 -60 -121 -93
-232 -211 -311 -528 -208 -834 l25 -75 -26 -76 c-56 -168 -55 -354 3 -520 42
-116 87 -186 182 -281 118 -117 214 -171 398 -223 68 -19 102 -21 292 -21 231
0 261 4 490 65 131 34 131 35 55 79 l-45 26 -99 -33 c-178 -59 -285 -76 -456
-71 -172 6 -255 27 -383 99 -304 169 -446 587 -306 899 l26 59 -25 53 c-58
123 -71 315 -32 463 55 204 211 390 398 475 211 95 486 95 776 -2 l101 -34 45
26 c25 15 50 31 55 36 11 11 -126 52 -284 86 -123 27 -436 34 -549 13z"/>
<path d="M5815 3170 c-384 -39 -845 -228 -1263 -517 -52 -35 -100 -62 -108
-59 -8 3 -60 36 -116 74 -132 89 -319 210 -380 245 l-48 28 -45 -27 c-25 -14
-47 -29 -50 -34 -2 -4 32 -29 78 -55 94 -55 455 -293 462 -305 9 -15 -366
-279 -547 -385 -38 -21 -68 -42 -68 -45 0 -3 30 -24 68 -45 178 -105 556 -371
546 -386 -7 -13 -356 -242 -461 -303 -46 -27 -80 -52 -78 -56 3 -5 26 -20 51
-35 l46 -27 86 53 c48 29 171 109 275 177 103 68 191 122 195 120 4 -2 72 -46
152 -99 593 -393 1176 -556 1641 -460 123 26 206 54 304 103 274 137 472 389
530 676 25 121 17 516 -12 617 -94 329 -331 571 -673 687 -156 53 -397 77
-585 58z m540 -204 c364 -80 589 -309 625 -636 5 -50 5 -116 0 -160 -5 -46 -4
-108 2 -162 7 -61 7 -111 -1 -167 -42 -312 -246 -527 -586 -618 -90 -24 -118
-26 -275 -27 -143 0 -196 4 -289 22 -236 47 -428 118 -686 250 -132 68 -374
216 -444 271 l-24 18 177 126 178 126 79 -69 c239 -206 495 -305 724 -280 138
16 207 44 291 122 168 155 181 417 28 587 -96 107 -208 151 -385 151 -235 0
-465 -101 -683 -301 l-53 -48 -177 125 c-97 69 -176 127 -176 128 0 7 173 122
269 180 112 68 332 179 454 230 163 67 414 133 572 150 79 8 311 -2 380 -18z
m-499 -567 c172 -32 294 -162 294 -314 0 -75 -28 -135 -94 -201 -86 -85 -152
-109 -301 -108 -132 0 -202 17 -330 80 -135 66 -312 207 -284 225 12 8 11 11
-1 19 -12 9 -8 16 25 46 239 211 467 294 691 253z m-1088 -175 c98 -69 178
-129 180 -133 4 -11 -356 -263 -371 -259 -16 4 -376 251 -377 258 0 3 33 26
73 52 39 26 122 83 182 127 61 44 116 80 123 80 8 1 93 -56 190 -125z"/>
<path d="M1270 2066 c-357 -54 -621 -175 -821 -375 -143 -142 -234 -302 -282
-491 -16 -66 -21 -115 -20 -220 0 -120 3 -145 28 -220 55 -171 136 -298 247
-386 158 -127 318 -180 543 -177 272 2 465 71 465 165 0 39 -40 78 -81 78 -34
0 -99 -55 -99 -84 0 -31 -174 -60 -319 -53 -200 10 -330 64 -457 191 -143 143
-203 318 -174 510 49 327 249 539 638 680 259 93 663 138 961 107 63 -7 116
-10 118 -7 3 3 9 41 13 84 5 43 13 98 20 121 6 24 9 45 7 48 -33 32 -621 54
-787 29z"/>
<path d="M2230 1986 c-14 -39 -30 -137 -30 -191 l0 -51 118 -33 c425 -121 791
-305 1507 -754 843 -530 1146 -686 1535 -793 174 -48 300 -66 475 -66 487 -3
819 198 1049 633 77 146 97 260 55 313 -26 33 -53 33 -85 1 -23 -23 -25 -31
-19 -73 11 -84 -49 -238 -139 -358 -95 -128 -264 -232 -451 -280 -270 -70
-711 -25 -1020 103 -305 126 -489 231 -1295 739 -157 99 -346 216 -420 261
-475 284 -856 462 -1163 543 l-108 29 -9 -23z"/>
</g>
</svg>
