<?xml version="1.0" standalone="no"?>
<!DOCTYPE svg PUBLIC "-//W3C//DTD SVG 20010904//EN"
 "http://www.w3.org/TR/2001/REC-SVG-20010904/DTD/svg10.dtd">
<svg version="1.0" xmlns="http://www.w3.org/2000/svg"
 width="354.000000pt" height="118.000000pt" viewBox="0 0 354.000000 118.000000"
 preserveAspectRatio="xMidYMid meet">

<g transform="translate(0.000000,118.000000) scale(0.100000,-0.100000)"
fill="#000000" stroke="none">
<path d="M1150 1064 c-108 -19 -200 -54 -141 -54 22 0 67 -34 83 -63 6 -12 14
-71 18 -132 8 -126 30 -184 80 -210 17 -9 30 -19 30 -23 0 -18 -52 -80 -88
-106 -67 -46 -123 -58 -309 -65 -192 -7 -210 -13 -246 -82 -20 -38 -18 -129 4
-155 6 -8 9 -17 7 -20 -12 -11 -110 98 -133 148 -30 65 -31 78 -4 78 64 0 119
75 119 162 -1 93 -52 168 -150 218 -52 26 -55 26 -56 -12 -1 -18 -9 -60 -19
-93 -12 -42 -16 -81 -12 -128 4 -62 8 -72 41 -106 20 -20 36 -46 36 -57 0 -35
58 -139 103 -183 l42 -43 -40 17 c-56 23 -110 58 -180 116 -113 94 -220 128
-299 95 -47 -20 -41 -33 8 -16 68 22 148 -17 278 -138 89 -83 150 -116 249
-137 219 -46 503 31 590 161 l15 24 17 -39 c53 -119 268 -60 551 151 l79 59
38 -43 37 -43 -30 -5 c-29 -5 -30 -6 -12 -22 11 -9 39 -24 64 -34 25 -10 59
-30 77 -45 123 -106 435 -102 658 8 79 40 147 95 236 195 l84 93 66 -3 c80 -5
111 9 189 83 57 54 135 91 170 82 11 -3 20 -3 20 -1 0 13 -91 89 -140 117 -50
29 -63 32 -140 32 -77 0 -89 -3 -135 -31 -110 -67 -149 -172 -87 -233 l28 -28
-82 -92 c-113 -128 -187 -182 -316 -231 -35 -13 -47 -15 -34 -6 86 67 125 130
126 198 0 120 -94 185 -235 158 -50 -9 -72 -9 -100 0 -73 24 -200 -15 -258
-79 -18 -20 -50 -62 -72 -93 -22 -32 -43 -58 -47 -58 -3 0 -25 23 -48 50 -41
49 -42 52 -24 65 11 8 45 24 77 36 77 29 163 85 211 139 21 23 57 84 81 134
23 50 54 106 69 124 l28 32 -30 0 c-61 0 -205 -31 -251 -55 -110 -55 -145
-104 -197 -273 l-37 -120 -52 39 c-71 53 -114 69 -190 69 -80 0 -147 -24 -220
-79 -72 -55 -105 -91 -172 -189 -87 -130 -198 -189 -374 -199 -149 -9 -209 30
-209 136 0 108 40 131 223 131 197 0 289 25 371 100 24 22 49 53 56 69 9 23
22 32 58 41 67 17 145 97 162 169 26 109 -27 211 -140 271 -36 19 -126 31
-170 24z m531 -523 c24 -12 60 -35 79 -51 34 -28 34 -29 16 -48 -10 -12 -61
-50 -114 -85 -184 -124 -333 -184 -401 -162 -24 7 -51 53 -51 85 0 62 119 199
213 245 105 51 179 56 258 16z m883 4 c64 -42 79 -140 34 -217 -50 -85 -155
-137 -291 -145 -112 -6 -195 8 -256 44 l-46 28 90 6 c146 11 203 40 242 126
19 41 24 66 21 109 -3 52 -2 55 22 60 14 3 30 8 35 10 24 9 125 -5 149 -21z"/>
</g>
</svg>
